# Blender v2.79 (sub 0) OBJ File: 'note.blend'
# www.blender.org
mtllib note.mtl
o Note_Cylinder.001
v 0.000000 -0.250000 -1.000000
v 0.000000 0.250000 -0.607966
v 0.258819 -0.250000 -0.965926
v 0.157353 0.250000 -0.587250
v 0.500000 -0.250000 -0.866025
v 0.303983 0.250000 -0.526514
v 0.707107 -0.250000 -0.707107
v 0.429897 0.250000 -0.429897
v 0.866025 -0.250000 -0.500000
v 0.526514 0.250000 -0.303983
v 0.965926 -0.250000 -0.258819
v 0.587250 0.250000 -0.157353
v 1.000000 -0.250000 -0.000000
v 0.607966 0.250000 0.000000
v 0.965926 -0.250000 0.258819
v 0.587250 0.250000 0.157353
v 0.866026 -0.250000 0.500000
v 0.526514 0.250000 0.303983
v 0.707107 -0.250000 0.707107
v 0.429897 0.250000 0.429897
v 0.500000 -0.250000 0.866025
v 0.303983 0.250000 0.526514
v 0.258819 -0.250000 0.965926
v 0.157353 0.250000 0.587250
v 0.000000 -0.250000 1.000000
v 0.000000 0.250000 0.607966
v -0.258819 -0.250000 0.965926
v -0.157353 0.250000 0.587250
v -0.500000 -0.250000 0.866026
v -0.303983 0.250000 0.526514
v -0.707106 -0.250000 0.707107
v -0.429897 0.250000 0.429897
v -0.866025 -0.250000 0.500000
v -0.526514 0.250000 0.303983
v -0.965926 -0.250000 0.258819
v -0.587250 0.250000 0.157354
v -1.000000 -0.250000 0.000000
v -0.607966 0.250000 0.000000
v -0.965926 -0.250000 -0.258819
v -0.587250 0.250000 -0.157353
v -0.866026 -0.250000 -0.499999
v -0.526514 0.250000 -0.303983
v -0.707107 -0.250000 -0.707106
v -0.429897 0.250000 -0.429897
v -0.500001 -0.250000 -0.866025
v -0.303983 0.250000 -0.526514
v -0.258820 -0.250000 -0.965926
v -0.157354 0.250000 -0.587250
v 0.000000 -0.035569 -0.965847
v 0.249980 -0.035569 -0.932937
v 0.482924 -0.035569 -0.836448
v 0.682957 -0.035569 -0.682957
v 0.836448 -0.035569 -0.482924
v 0.932937 -0.035569 -0.249980
v 0.965847 -0.035569 -0.000000
v 0.932937 -0.035569 0.249980
v 0.836448 -0.035569 0.482923
v 0.682957 -0.035569 0.682957
v 0.482924 -0.035569 0.836448
v 0.249980 -0.035569 0.932937
v 0.000000 -0.035569 0.965847
v -0.249979 -0.035569 0.932937
v -0.482923 -0.035569 0.836448
v -0.682957 -0.035569 0.682957
v -0.836448 -0.035569 0.482924
v -0.932937 -0.035569 0.249980
v -0.965847 -0.035569 0.000000
v -0.932937 -0.035569 -0.249979
v -0.836448 -0.035569 -0.482923
v -0.682958 -0.035569 -0.682957
v -0.482924 -0.035569 -0.836448
v -0.249980 -0.035569 -0.932937
v 0.157353 0.331894 -0.587250
v 0.000000 0.331894 -0.607966
v 0.303983 0.331894 -0.526514
v 0.429897 0.331894 -0.429897
v 0.526514 0.331894 -0.303983
v 0.587250 0.331894 -0.157353
v 0.607966 0.331894 0.000000
v 0.587250 0.331894 0.157353
v 0.526514 0.331894 0.303983
v 0.429897 0.331894 0.429897
v 0.303983 0.331894 0.526514
v 0.157353 0.331894 0.587250
v 0.000000 0.331894 0.607966
v -0.157353 0.331894 0.587250
v -0.303983 0.331894 0.526514
v -0.429897 0.331894 0.429897
v -0.526514 0.331894 0.303983
v -0.587250 0.331894 0.157354
v -0.607966 0.331894 0.000000
v -0.587250 0.331894 -0.157353
v -0.526514 0.331894 -0.303983
v -0.429897 0.331894 -0.429897
v -0.303983 0.331894 -0.526514
v -0.157354 0.331894 -0.587250
v 0.359925 0.243805 -0.495202
vt 0.470091 0.965858
vt 0.488844 0.967610
vt 0.483737 0.976489
vt 0.474349 0.955360
vt 0.491469 0.957714
vt 0.491436 0.947480
vt 0.474295 0.949650
vt 0.488750 0.937610
vt 0.472756 0.944151
vt 0.483604 0.928777
vt 0.469832 0.939239
vt 0.476363 0.921577
vt 0.460756 0.932365
vt 0.467540 0.916471
vt 0.457692 0.913790
vt 0.449526 0.930885
vt 0.447474 0.913742
vt 0.437583 0.916346
vt 0.444016 0.932378
vt 0.428701 0.921433
vt 0.439082 0.935254
vt 0.421439 0.928656
vt 0.432234 0.944287
vt 0.416298 0.937522
vt 0.413633 0.947423
vt 0.430828 0.955556
vt 0.413626 0.957681
vt 0.416278 0.967593
vt 0.432350 0.961084
vt 0.421408 0.976481
vt 0.435251 0.966032
vt 0.428664 0.983739
vt 0.444319 0.972904
vt 0.437551 0.988871
vt 0.449868 0.974358
vt 0.447462 0.991527
vt 0.455602 0.974328
vt 0.457720 0.991527
vt 0.467624 0.988871
vt 0.679372 0.967353
vt 0.679743 0.959474
vt 0.683162 0.960858
vt 0.461128 0.972816
vt 0.476499 0.983741
vt 0.668210 0.990062
vt 0.651344 0.977310
vt 0.673379 0.949599
vt 0.553325 0.910756
vt 0.560551 0.920946
vt 0.552125 0.918960
vt 0.542784 0.910555
vt 0.543494 0.918701
vt 0.535252 0.920600
vt 0.523226 0.917896
vt 0.527867 0.924562
vt 0.515596 0.925127
vt 0.521845 0.930301
vt 0.510178 0.934147
vt 0.517605 0.937456
vt 0.507369 0.944313
vt 0.515445 0.945519
vt 0.507356 0.954904
vt 0.515530 0.953930
vt 0.510103 0.965207
vt 0.517786 0.962143
vt 0.515458 0.974495
vt 0.522116 0.969523
vt 0.523072 0.982104
vt 0.528234 0.975556
vt 0.532420 0.987493
vt 0.535723 0.979819
vt 0.544069 0.982014
vt 0.553656 0.990283
vt 0.552698 0.981990
vt 0.564072 0.987497
vt 0.561016 0.979750
vt 0.573384 0.982126
vt 0.568453 0.975457
vt 0.580950 0.974565
vt 0.574505 0.969418
vt 0.586277 0.965373
vt 0.578776 0.962088
vt 0.589024 0.955184
vt 0.580974 0.953997
vt 0.580919 0.945665
vt 0.586111 0.934539
vt 0.578622 0.937675
vt 0.580636 0.925548
vt 0.574239 0.930596
vt 0.572946 0.918304
vt 0.568078 0.924882
vt 0.563611 0.913299
vt 0.536445 0.950973
vt 0.553507 0.943906
vt 0.540525 0.960824
vt 0.679157 0.932675
vt 0.671612 0.930563
vt 0.673723 0.927546
vt 0.644967 0.923735
vt 0.640585 0.930240
vt 0.638386 0.927299
vt 0.627278 0.953503
vt 0.632650 0.959282
vt 0.629245 0.960763
vt 0.667422 0.976495
vt 0.671708 0.969759
vt 0.674012 0.972697
vt 0.685064 0.946186
vt 0.679702 0.940538
vt 0.683030 0.939028
vt 0.659821 0.922167
vt 0.652714 0.925697
vt 0.652283 0.922011
vt 0.629207 0.938856
vt 0.630896 0.946462
vt 0.627258 0.946036
vt 0.638426 0.972688
vt 0.646423 0.973003
vt 0.645037 0.976493
vt 0.652415 0.978464
vt 0.659516 0.974747
vt 0.660053 0.978464
vt 0.681465 0.953211
vt 0.685108 0.953638
vt 0.665835 0.927453
vt 0.667118 0.923982
vt 0.635899 0.934697
vt 0.633006 0.932459
vt 0.635965 0.964997
vt 0.633040 0.967316
vt 0.676408 0.965114
vt 0.676344 0.935024
vt 0.646320 0.927166
vt 0.630923 0.952955
vt 0.665948 0.973049
vt 0.681449 0.946747
vt 0.652855 0.974732
vt 0.659372 0.925874
vt 0.632592 0.940235
vt 0.640661 0.969680
vt 0.472915 0.960889
vt 0.465719 0.935251
vt 0.455235 0.930879
vt 0.435063 0.939316
vt 0.430789 0.949827
vt 0.439333 0.970064
vt 0.466070 0.969927
vt 0.678786 0.950874
vt 0.683616 0.953400
vt 0.687570 0.957066
vt 0.690382 0.961609
vt 0.691857 0.966736
vt 0.691892 0.972083
vt 0.690481 0.977275
vt 0.687741 0.981978
vt 0.683857 0.985854
vt 0.679085 0.988608
vt 0.673747 0.990046
vt 0.662854 0.988653
vt 0.658048 0.985917
vt 0.654123 0.982046
vt 0.649896 0.972039
vt 0.649842 0.966642
vt 0.651228 0.961468
vt 0.653949 0.956877
vt 0.657813 0.953194
vt 0.662552 0.950652
vt 0.667841 0.949433
vt 0.532516 0.912933
vt 0.542856 0.990283
vt 0.588974 0.944658
vt 0.551096 0.962215
vt 0.548408 0.962936
vt 0.545625 0.962936
vt 0.542936 0.962215
vt 0.538557 0.958855
vt 0.537166 0.956445
vt 0.536445 0.953756
vt 0.537166 0.948284
vt 0.538557 0.945874
vt 0.540526 0.943906
vt 0.542936 0.942514
vt 0.545625 0.941794
vt 0.548408 0.941794
vt 0.551096 0.942514
vt 0.555475 0.945874
vt 0.556867 0.948284
vt 0.557587 0.950973
vt 0.557587 0.953756
vt 0.556867 0.956445
vt 0.555475 0.958855
vt 0.553507 0.960824
vn 0.0818 0.7790 -0.6216
vn 0.2399 0.7790 -0.5793
vn 0.3817 0.7790 -0.4974
vn 0.4974 0.7790 -0.3817
vn 0.5793 0.7790 -0.2399
vn 0.6216 0.7790 -0.0818
vn 0.6216 0.7790 0.0818
vn 0.5793 0.7790 0.2399
vn 0.4974 0.7790 0.3817
vn 0.3817 0.7790 0.4974
vn 0.2399 0.7790 0.5793
vn 0.0818 0.7790 0.6216
vn -0.0818 0.7790 0.6216
vn -0.2399 0.7790 0.5793
vn -0.3817 0.7790 0.4974
vn -0.4974 0.7790 0.3817
vn -0.5793 0.7790 0.2399
vn -0.6216 0.7790 0.0818
vn -0.6216 0.7790 -0.0818
vn -0.5793 0.7790 -0.2399
vn -0.4974 0.7790 -0.3817
vn -0.3817 0.7790 -0.4974
vn 0.9914 0.0000 -0.1305
vn -0.2399 0.7790 -0.5793
vn -0.0818 0.7790 -0.6216
vn 0.0000 -1.0000 0.0000
vn -0.1289 0.1560 -0.9793
vn -0.3780 0.1560 -0.9126
vn -0.6013 0.1560 -0.7836
vn -0.7836 0.1560 -0.6013
vn -0.9126 0.1560 -0.3780
vn -0.9793 0.1560 -0.1289
vn -0.9793 0.1560 0.1289
vn -0.9126 0.1560 0.3780
vn -0.7836 0.1560 0.6013
vn -0.6013 0.1560 0.7836
vn -0.3780 0.1560 0.9126
vn -0.1289 0.1560 0.9793
vn 0.1289 0.1560 0.9793
vn 0.3780 0.1560 0.9126
vn 0.6013 0.1560 0.7836
vn 0.7836 0.1560 0.6013
vn 0.9126 0.1560 0.3780
vn 0.9793 0.1560 0.1289
vn 0.9793 0.1560 -0.1289
vn 0.9126 0.1560 -0.3780
vn 0.7836 0.1560 -0.6013
vn 0.6013 0.1560 -0.7836
vn 0.3780 0.1560 -0.9126
vn 0.1289 0.1560 -0.9793
vn 0.0000 1.0000 0.0000
vn 0.3827 0.0000 0.9239
vn -0.7934 0.0000 0.6088
vn -0.7934 0.0000 -0.6088
vn 0.7934 0.0000 -0.6088
vn 0.7934 0.0000 0.6088
vn -0.3827 0.0000 0.9239
vn -0.9914 0.0000 -0.1305
vn -0.1305 0.0000 -0.9914
vn 0.3827 0.0000 -0.9239
vn 0.9914 0.0000 0.1305
vn 0.1305 0.0000 0.9914
vn -0.9239 0.0000 0.3827
vn -0.6088 0.0000 -0.7934
vn 0.9239 0.0000 -0.3827
vn 0.6088 0.0000 0.7934
vn -0.6088 0.0000 0.7934
vn -0.9239 0.0000 -0.3827
vn 0.6088 0.0000 -0.7934
vn 0.9239 0.0000 0.3827
vn 0.1305 0.0000 -0.9914
vn -0.1305 0.0000 0.9914
vn -0.9914 0.0000 0.1305
vn -0.3827 0.0000 -0.9239
usemtl Material
s off
f 2/1/1 50/2/1 49/3/1
f 50/2/2 6/4/2 51/5/2
f 6/4/3 52/6/3 51/5/3
f 8/7/4 53/8/4 52/6/4
f 10/9/5 54/10/5 53/8/5
f 12/11/6 55/12/6 54/10/6
f 55/12/7 16/13/7 56/14/7
f 16/13/8 57/15/8 56/14/8
f 57/15/9 20/16/9 58/17/9
f 20/16/10 59/18/10 58/17/10
f 22/19/11 60/20/11 59/18/11
f 24/21/12 61/22/12 60/20/12
f 61/22/13 28/23/13 62/24/13
f 28/23/14 63/25/14 62/24/14
f 63/25/15 32/26/15 64/27/15
f 32/26/16 65/28/16 64/27/16
f 34/29/17 66/30/17 65/28/17
f 36/31/18 67/32/18 66/30/18
f 67/32/19 40/33/19 68/34/19
f 68/34/20 42/35/20 69/36/20
f 69/36/21 44/37/21 70/38/21
f 44/37/22 71/39/22 70/38/22
f 12/40/23 79/41/23 14/42/23
f 46/43/24 72/44/24 71/39/24
f 72/44/25 2/1/25 49/3/25
f 23/45/26 31/46/26 47/47/26
f 72/48/27 1/49/27 47/50/27
f 71/51/28 47/50/28 45/52/28
f 43/53/29 71/51/29 45/52/29
f 69/54/30 43/53/30 41/55/30
f 68/56/31 41/55/31 39/57/31
f 67/58/32 39/57/32 37/59/32
f 66/60/33 37/59/33 35/61/33
f 65/62/34 35/61/34 33/63/34
f 64/64/35 33/63/35 31/65/35
f 63/66/36 31/65/36 29/67/36
f 62/68/37 29/67/37 27/69/37
f 61/70/38 27/69/38 25/71/38
f 23/72/39 61/70/39 25/71/39
f 59/73/40 23/72/40 21/74/40
f 58/75/41 21/74/41 19/76/41
f 57/77/42 19/76/42 17/78/42
f 56/79/43 17/78/43 15/80/43
f 55/81/44 15/80/44 13/82/44
f 54/83/45 13/82/45 11/84/45
f 9/85/46 54/83/46 11/84/46
f 52/86/47 9/85/47 7/87/47
f 51/88/48 7/87/48 5/89/48
f 50/90/49 5/89/49 3/91/49
f 49/92/50 3/91/50 1/49/50
f 91/93/51 83/94/51 95/95/51
f 22/96/52 84/97/52 24/98/52
f 32/99/53 89/100/53 34/101/53
f 42/102/54 94/103/54 44/104/54
f 8/105/55 77/106/55 10/107/55
f 18/108/56 82/109/56 20/110/56
f 28/111/57 87/112/57 30/113/57
f 38/114/58 92/115/58 40/116/58
f 48/117/59 74/118/59 2/119/59
f 4/120/60 75/121/60 6/122/60
f 14/42/61 80/123/61 16/124/61
f 24/98/62 85/125/62 26/126/62
f 34/101/63 90/127/63 36/128/63
f 44/104/64 95/129/64 46/130/64
f 10/107/65 78/131/65 12/40/65
f 20/110/66 83/132/66 22/96/66
f 30/113/67 88/133/67 32/99/67
f 40/116/68 93/134/68 42/102/68
f 6/122/69 76/135/69 8/105/69
f 16/124/70 81/136/70 18/108/70
f 2/119/71 73/137/71 4/120/71
f 26/126/72 86/138/72 28/111/72
f 36/128/73 91/139/73 38/114/73
f 46/130/74 96/140/74 48/117/74
f 2/1/1 4/141/1 50/2/1
f 50/2/2 4/141/2 6/4/2
f 6/4/3 8/7/3 52/6/3
f 8/7/4 10/9/4 53/8/4
f 10/9/5 12/11/5 54/10/5
f 12/11/6 14/142/6 55/12/6
f 55/12/7 14/142/7 16/13/7
f 16/13/8 18/143/8 57/15/8
f 57/15/9 18/143/9 20/16/9
f 20/16/10 22/19/10 59/18/10
f 22/19/11 24/21/11 60/20/11
f 24/21/12 26/144/12 61/22/12
f 61/22/13 26/144/13 28/23/13
f 28/23/14 30/145/14 63/25/14
f 63/25/15 30/145/15 32/26/15
f 32/26/16 34/29/16 65/28/16
f 34/29/17 36/31/17 66/30/17
f 36/31/18 38/146/18 67/32/18
f 67/32/19 38/146/19 40/33/19
f 68/34/20 40/33/20 42/35/20
f 69/36/21 42/35/21 44/37/21
f 44/37/22 46/43/22 71/39/22
f 12/40/23 78/131/23 79/41/23
f 46/43/24 48/147/24 72/44/24
f 72/44/25 48/147/25 2/1/25
f 47/47/26 1/148/26 3/149/26
f 3/149/26 5/150/26 7/151/26
f 7/151/26 9/152/26 11/153/26
f 11/153/26 13/154/26 15/155/26
f 15/155/26 17/156/26 19/157/26
f 19/157/26 21/158/26 23/45/26
f 23/45/26 25/159/26 27/160/26
f 27/160/26 29/161/26 31/46/26
f 31/46/26 33/162/26 35/163/26
f 35/163/26 37/164/26 39/165/26
f 39/165/26 41/166/26 43/167/26
f 43/167/26 45/168/26 47/47/26
f 47/47/26 3/149/26 7/151/26
f 7/151/26 11/153/26 15/155/26
f 15/155/26 19/157/26 23/45/26
f 23/45/26 27/160/26 31/46/26
f 31/46/26 35/163/26 47/47/26
f 39/165/26 43/167/26 47/47/26
f 47/47/26 7/151/26 15/155/26
f 15/155/26 23/45/26 47/47/26
f 35/163/26 39/165/26 47/47/26
f 72/48/27 49/92/27 1/49/27
f 71/51/28 72/48/28 47/50/28
f 43/53/29 70/169/29 71/51/29
f 69/54/30 70/169/30 43/53/30
f 68/56/31 69/54/31 41/55/31
f 67/58/32 68/56/32 39/57/32
f 66/60/33 67/58/33 37/59/33
f 65/62/34 66/60/34 35/61/34
f 64/64/35 65/62/35 33/63/35
f 63/66/36 64/64/36 31/65/36
f 62/68/37 63/66/37 29/67/37
f 61/70/38 62/68/38 27/69/38
f 23/72/39 60/170/39 61/70/39
f 59/73/40 60/170/40 23/72/40
f 58/75/41 59/73/41 21/74/41
f 57/77/42 58/75/42 19/76/42
f 56/79/43 57/77/43 17/78/43
f 55/81/44 56/79/44 15/80/44
f 54/83/45 55/81/45 13/82/45
f 9/85/46 53/171/46 54/83/46
f 52/86/47 53/171/47 9/85/47
f 51/88/48 52/86/48 7/87/48
f 50/90/49 51/88/49 5/89/49
f 49/92/50 50/90/50 3/91/50
f 75/172/51 73/173/51 95/95/51
f 74/174/51 96/175/51 95/95/51
f 95/95/51 94/176/51 91/93/51
f 93/177/51 92/178/51 91/93/51
f 91/93/51 90/179/51 89/180/51
f 89/180/51 88/181/51 91/93/51
f 87/182/51 86/183/51 85/184/51
f 85/184/51 84/185/51 83/94/51
f 83/94/51 82/186/51 81/187/51
f 81/187/51 80/188/51 79/189/51
f 79/189/51 78/190/51 75/172/51
f 77/191/51 76/192/51 75/172/51
f 73/173/51 74/174/51 95/95/51
f 94/176/51 93/177/51 91/93/51
f 91/93/51 88/181/51 87/182/51
f 87/182/51 85/184/51 91/93/51
f 83/94/51 81/187/51 79/189/51
f 78/190/51 77/191/51 75/172/51
f 75/172/51 95/95/51 83/94/51
f 91/93/51 85/184/51 83/94/51
f 83/94/51 79/189/51 75/172/51
f 22/96/52 83/132/52 84/97/52
f 32/99/53 88/133/53 89/100/53
f 42/102/54 93/134/54 94/103/54
f 8/105/55 76/135/55 77/106/55
f 18/108/56 81/136/56 82/109/56
f 28/111/57 86/138/57 87/112/57
f 38/114/58 91/139/58 92/115/58
f 48/117/59 96/140/59 74/118/59
f 4/120/60 73/137/60 75/121/60
f 14/42/61 79/41/61 80/123/61
f 24/98/62 84/97/62 85/125/62
f 34/101/63 89/100/63 90/127/63
f 44/104/64 94/103/64 95/129/64
f 10/107/65 77/106/65 78/131/65
f 20/110/66 82/109/66 83/132/66
f 30/113/67 87/112/67 88/133/67
f 40/116/68 92/115/68 93/134/68
f 6/122/69 75/121/69 76/135/69
f 16/124/70 80/123/70 81/136/70
f 2/119/71 74/118/71 73/137/71
f 26/126/72 85/125/72 86/138/72
f 36/128/73 90/127/73 91/139/73
f 46/130/74 95/129/74 96/140/74
