# Blender v2.79 (sub 0) OBJ File: 'note.blend'
# www.blender.org
mtllib note.mtl
o Note_Cylinder.001
v 0.000000 0.009326 -1.000000
v 0.000000 0.509326 -0.607966
v 0.258819 0.009326 -0.965926
v 0.157353 0.509326 -0.587250
v 0.500000 0.009326 -0.866025
v 0.303983 0.509326 -0.526514
v 0.707107 0.009326 -0.707107
v 0.429897 0.509326 -0.429897
v 0.866025 0.009326 -0.500000
v 0.526514 0.509326 -0.303983
v 0.965926 0.009326 -0.258819
v 0.587250 0.509326 -0.157353
v 1.000000 0.009326 -0.000000
v 0.607966 0.509326 0.000000
v 0.965926 0.009326 0.258819
v 0.587250 0.509326 0.157353
v 0.866026 0.009326 0.500000
v 0.526514 0.509326 0.303983
v 0.707107 0.009326 0.707107
v 0.429897 0.509326 0.429897
v 0.500000 0.009326 0.866025
v 0.303983 0.509326 0.526514
v 0.258819 0.009326 0.965926
v 0.157353 0.509326 0.587250
v 0.000000 0.009326 1.000000
v 0.000000 0.509326 0.607966
v -0.258819 0.009326 0.965926
v -0.157353 0.509326 0.587250
v -0.500000 0.009326 0.866026
v -0.303983 0.509326 0.526514
v -0.707106 0.009326 0.707107
v -0.429897 0.509326 0.429897
v -0.866025 0.009326 0.500000
v -0.526514 0.509326 0.303983
v -0.965926 0.009326 0.258819
v -0.587250 0.509326 0.157354
v -1.000000 0.009326 0.000000
v -0.607966 0.509326 0.000000
v -0.965926 0.009326 -0.258819
v -0.587250 0.509326 -0.157353
v -0.866026 0.009326 -0.499999
v -0.526514 0.509326 -0.303983
v -0.707107 0.009326 -0.707106
v -0.429897 0.509326 -0.429897
v -0.500001 0.009326 -0.866025
v -0.303983 0.509326 -0.526514
v -0.258820 0.009326 -0.965926
v -0.157354 0.509326 -0.587250
v 0.000000 0.223757 -0.965847
v 0.249980 0.223757 -0.932937
v 0.482924 0.223757 -0.836448
v 0.682957 0.223757 -0.682957
v 0.836448 0.223757 -0.482924
v 0.932937 0.223757 -0.249980
v 0.965847 0.223757 -0.000000
v 0.932937 0.223757 0.249980
v 0.836448 0.223757 0.482923
v 0.682957 0.223757 0.682957
v 0.482924 0.223757 0.836448
v 0.249980 0.223757 0.932937
v 0.000000 0.223757 0.965847
v -0.249979 0.223757 0.932937
v -0.482923 0.223757 0.836448
v -0.682957 0.223757 0.682957
v -0.836448 0.223757 0.482924
v -0.932937 0.223757 0.249980
v -0.965847 0.223757 0.000000
v -0.932937 0.223757 -0.249979
v -0.836448 0.223757 -0.482923
v -0.682958 0.223757 -0.682957
v -0.482924 0.223757 -0.836448
v -0.249980 0.223757 -0.932937
v 0.157353 0.591220 -0.587250
v 0.000000 0.591220 -0.607966
v 0.303983 0.591220 -0.526514
v 0.429897 0.591220 -0.429897
v 0.526514 0.591220 -0.303983
v 0.587250 0.591220 -0.157353
v 0.607966 0.591220 0.000000
v 0.587250 0.591220 0.157353
v 0.526514 0.591220 0.303983
v 0.429897 0.591220 0.429897
v 0.303983 0.591220 0.526514
v 0.157353 0.591220 0.587250
v 0.000000 0.591220 0.607966
v -0.157353 0.591220 0.587250
v -0.303983 0.591220 0.526514
v -0.429897 0.591220 0.429897
v -0.526514 0.591220 0.303983
v -0.587250 0.591220 0.157354
v -0.607966 0.591220 0.000000
v -0.587250 0.591220 -0.157353
v -0.526514 0.591220 -0.303983
v -0.429897 0.591220 -0.429897
v -0.303983 0.591220 -0.526514
v -0.157354 0.591220 -0.587250
v 0.359925 0.503131 -0.495202
vt 0.189986 0.550281
vt 0.209797 0.552132
vt 0.204402 0.561512
vt 0.194484 0.539191
vt 0.212571 0.541678
vt 0.212536 0.530866
vt 0.194427 0.533159
vt 0.209698 0.520439
vt 0.192801 0.527349
vt 0.204262 0.511107
vt 0.189712 0.522159
vt 0.196612 0.503501
vt 0.180124 0.514898
vt 0.187291 0.498107
vt 0.176887 0.495275
vt 0.174291 0.513328
vt 0.166092 0.495224
vt 0.162439 0.514912
vt 0.155643 0.497975
vt 0.146259 0.503349
vt 0.157227 0.517950
vt 0.138588 0.510980
vt 0.152981 0.522242
vt 0.133157 0.520346
vt 0.149992 0.527493
vt 0.130342 0.530806
vt 0.148507 0.539398
vt 0.130334 0.541642
vt 0.133136 0.552114
vt 0.150115 0.545238
vt 0.138555 0.561504
vt 0.153179 0.550465
vt 0.146221 0.569171
vt 0.157492 0.554725
vt 0.155609 0.574593
vt 0.168622 0.559261
vt 0.166080 0.577399
vt 0.176916 0.577399
vt 0.180517 0.557632
vt 0.187380 0.574593
vt 0.760161 0.704051
vt 0.760532 0.696172
vt 0.763951 0.697555
vt 0.196756 0.569174
vt 0.185738 0.554580
vt 0.742079 0.331083
vt 0.725213 0.318331
vt 0.747249 0.290620
vt 0.494299 0.503952
vt 0.501525 0.514143
vt 0.493098 0.512156
vt 0.483758 0.503751
vt 0.484468 0.511898
vt 0.473489 0.506130
vt 0.476226 0.513796
vt 0.464199 0.511092
vt 0.468841 0.517758
vt 0.456569 0.518323
vt 0.462819 0.523497
vt 0.451152 0.527343
vt 0.458578 0.530652
vt 0.448342 0.537509
vt 0.456419 0.538715
vt 0.448330 0.548100
vt 0.456503 0.547126
vt 0.451076 0.558403
vt 0.458759 0.555340
vt 0.456432 0.567692
vt 0.463090 0.562719
vt 0.464045 0.575300
vt 0.469207 0.568752
vt 0.476696 0.573016
vt 0.483829 0.583480
vt 0.485043 0.575211
vt 0.493672 0.575186
vt 0.505046 0.580693
vt 0.501990 0.572946
vt 0.514357 0.575322
vt 0.509427 0.568654
vt 0.521924 0.567761
vt 0.515479 0.562614
vt 0.527250 0.558570
vt 0.519749 0.555285
vt 0.529997 0.548380
vt 0.521947 0.547193
vt 0.529947 0.537854
vt 0.521893 0.538861
vt 0.519595 0.530872
vt 0.515213 0.523792
vt 0.527084 0.527735
vt 0.509051 0.518079
vt 0.521610 0.518744
vt 0.504585 0.506496
vt 0.477419 0.544169
vt 0.494481 0.537102
vt 0.481499 0.554020
vt 0.759946 0.669372
vt 0.752400 0.667260
vt 0.754512 0.664243
vt 0.725756 0.660432
vt 0.721373 0.666937
vt 0.719174 0.663997
vt 0.708067 0.690201
vt 0.713439 0.695980
vt 0.710034 0.697460
vt 0.748210 0.713192
vt 0.752496 0.706457
vt 0.754800 0.709395
vt 0.765853 0.682883
vt 0.760491 0.677235
vt 0.763819 0.675726
vt 0.740610 0.658865
vt 0.733503 0.662395
vt 0.733072 0.658708
vt 0.709996 0.675553
vt 0.711684 0.683159
vt 0.708046 0.682733
vt 0.719215 0.709385
vt 0.727212 0.709701
vt 0.725825 0.713190
vt 0.733204 0.715162
vt 0.740305 0.711445
vt 0.740841 0.715162
vt 0.762253 0.689909
vt 0.765897 0.690335
vt 0.746623 0.664150
vt 0.747907 0.660679
vt 0.716688 0.671395
vt 0.713794 0.669156
vt 0.716754 0.701694
vt 0.713828 0.704014
vt 0.757197 0.701811
vt 0.757133 0.671721
vt 0.727109 0.663864
vt 0.711712 0.689652
vt 0.746736 0.709746
vt 0.762238 0.683444
vt 0.733644 0.711430
vt 0.740161 0.662571
vt 0.713380 0.676932
vt 0.721450 0.706378
vt 0.192969 0.545032
vt 0.185367 0.517946
vt 0.168260 0.513335
vt 0.148465 0.533345
vt 0.162760 0.557725
vt 0.174679 0.559229
vt 0.752656 0.291895
vt 0.757486 0.294421
vt 0.761440 0.298087
vt 0.764252 0.302630
vt 0.765726 0.307757
vt 0.765761 0.313104
vt 0.764351 0.318296
vt 0.761610 0.323000
vt 0.757727 0.326875
vt 0.752955 0.329630
vt 0.747617 0.331067
vt 0.736724 0.329674
vt 0.731918 0.326939
vt 0.727992 0.323067
vt 0.723766 0.313061
vt 0.723711 0.307664
vt 0.725097 0.302489
vt 0.727818 0.297898
vt 0.731683 0.294215
vt 0.736422 0.291673
vt 0.741710 0.290455
vt 0.473394 0.580689
vt 0.494629 0.583480
vt 0.513920 0.511500
vt 0.492070 0.555412
vt 0.489381 0.556132
vt 0.486598 0.556132
vt 0.483910 0.555412
vt 0.479531 0.552052
vt 0.478139 0.549641
vt 0.477419 0.546953
vt 0.478139 0.541481
vt 0.483910 0.535710
vt 0.479531 0.539070
vt 0.481499 0.537102
vt 0.486598 0.534990
vt 0.489382 0.534990
vt 0.492070 0.535710
vt 0.496449 0.539070
vt 0.497840 0.541481
vt 0.498561 0.544169
vt 0.498561 0.546953
vt 0.497840 0.549641
vt 0.496449 0.552052
vt 0.494481 0.554020
vn 0.0818 0.7790 -0.6216
vn 0.2399 0.7790 -0.5793
vn 0.3817 0.7790 -0.4974
vn 0.4974 0.7790 -0.3817
vn 0.5793 0.7790 -0.2399
vn 0.6216 0.7790 -0.0818
vn 0.6216 0.7790 0.0818
vn 0.5793 0.7790 0.2399
vn 0.4974 0.7790 0.3817
vn 0.3817 0.7790 0.4974
vn 0.2399 0.7790 0.5793
vn 0.0818 0.7790 0.6216
vn -0.0818 0.7790 0.6216
vn -0.2399 0.7790 0.5793
vn -0.3817 0.7790 0.4974
vn -0.4974 0.7790 0.3817
vn -0.5793 0.7790 0.2399
vn -0.6216 0.7790 0.0818
vn -0.6216 0.7790 -0.0818
vn -0.5793 0.7790 -0.2399
vn -0.4974 0.7790 -0.3817
vn -0.3817 0.7790 -0.4974
vn 0.9914 0.0000 -0.1305
vn -0.2399 0.7790 -0.5793
vn -0.0818 0.7790 -0.6216
vn 0.0000 -1.0000 -0.0000
vn -0.1289 0.1560 -0.9793
vn -0.3780 0.1560 -0.9126
vn -0.6013 0.1560 -0.7836
vn -0.7836 0.1560 -0.6013
vn -0.9126 0.1560 -0.3780
vn -0.9793 0.1560 -0.1289
vn -0.9793 0.1560 0.1289
vn -0.9126 0.1560 0.3780
vn -0.7836 0.1560 0.6013
vn -0.6013 0.1560 0.7836
vn -0.3780 0.1560 0.9126
vn -0.1289 0.1560 0.9793
vn 0.1289 0.1560 0.9793
vn 0.3780 0.1560 0.9126
vn 0.6013 0.1560 0.7836
vn 0.7836 0.1560 0.6013
vn 0.9126 0.1560 0.3780
vn 0.9793 0.1560 0.1289
vn 0.9793 0.1560 -0.1289
vn 0.9126 0.1560 -0.3780
vn 0.7836 0.1560 -0.6013
vn 0.6013 0.1560 -0.7836
vn 0.3780 0.1560 -0.9126
vn 0.1289 0.1560 -0.9793
vn 0.0000 1.0000 0.0000
vn 0.3827 0.0000 0.9239
vn -0.7934 0.0000 0.6088
vn -0.7934 0.0000 -0.6088
vn 0.7934 0.0000 -0.6088
vn 0.7934 0.0000 0.6088
vn -0.3827 0.0000 0.9239
vn -0.9914 0.0000 -0.1305
vn -0.1305 0.0000 -0.9914
vn 0.3827 0.0000 -0.9239
vn 0.9914 0.0000 0.1305
vn 0.1305 0.0000 0.9914
vn -0.9239 0.0000 0.3827
vn -0.6088 0.0000 -0.7934
vn 0.9239 0.0000 -0.3827
vn 0.6088 0.0000 0.7934
vn -0.6088 0.0000 0.7934
vn -0.9239 0.0000 -0.3827
vn 0.6088 0.0000 -0.7934
vn 0.9239 0.0000 0.3827
vn 0.1305 0.0000 -0.9914
vn -0.1305 0.0000 0.9914
vn -0.9914 0.0000 0.1305
vn -0.3827 0.0000 -0.9239
usemtl Material
s off
f 2/1/1 50/2/1 49/3/1
f 50/2/2 6/4/2 51/5/2
f 6/4/3 52/6/3 51/5/3
f 8/7/4 53/8/4 52/6/4
f 10/9/5 54/10/5 53/8/5
f 12/11/6 55/12/6 54/10/6
f 55/12/7 16/13/7 56/14/7
f 16/13/8 57/15/8 56/14/8
f 18/16/9 58/17/9 57/15/9
f 58/17/10 22/18/10 59/19/10
f 22/18/11 60/20/11 59/19/11
f 24/21/12 61/22/12 60/20/12
f 26/23/13 62/24/13 61/22/13
f 28/25/14 63/26/14 62/24/14
f 63/26/15 32/27/15 64/28/15
f 32/27/16 65/29/16 64/28/16
f 34/30/17 66/31/17 65/29/17
f 36/32/18 67/33/18 66/31/18
f 38/34/19 68/35/19 67/33/19
f 68/35/20 42/36/20 69/37/20
f 42/36/21 70/38/21 69/37/21
f 70/38/22 46/39/22 71/40/22
f 12/41/23 79/42/23 14/43/23
f 46/39/24 72/44/24 71/40/24
f 48/45/25 49/3/25 72/44/25
f 23/46/26 31/47/26 47/48/26
f 72/49/27 1/50/27 47/51/27
f 71/52/28 47/51/28 45/53/28
f 70/54/29 45/53/29 43/55/29
f 69/56/30 43/55/30 41/57/30
f 68/58/31 41/57/31 39/59/31
f 67/60/32 39/59/32 37/61/32
f 66/62/33 37/61/33 35/63/33
f 65/64/34 35/63/34 33/65/34
f 64/66/35 33/65/35 31/67/35
f 63/68/36 31/67/36 29/69/36
f 62/70/37 29/69/37 27/71/37
f 25/72/38 62/70/38 27/71/38
f 60/73/39 25/72/39 23/74/39
f 21/75/40 60/73/40 23/74/40
f 58/76/41 21/75/41 19/77/41
f 57/78/42 19/77/42 17/79/42
f 56/80/43 17/79/43 15/81/43
f 55/82/44 15/81/44 13/83/44
f 54/84/45 13/83/45 11/85/45
f 53/86/46 11/85/46 9/87/46
f 7/88/47 53/86/47 9/87/47
f 5/89/48 52/90/48 7/88/48
f 3/91/49 51/92/49 5/89/49
f 49/93/50 3/91/50 1/50/50
f 91/94/51 83/95/51 95/96/51
f 22/97/52 84/98/52 24/99/52
f 32/100/53 89/101/53 34/102/53
f 42/103/54 94/104/54 44/105/54
f 8/106/55 77/107/55 10/108/55
f 18/109/56 82/110/56 20/111/56
f 28/112/57 87/113/57 30/114/57
f 38/115/58 92/116/58 40/117/58
f 48/118/59 74/119/59 2/120/59
f 4/121/60 75/122/60 6/123/60
f 14/43/61 80/124/61 16/125/61
f 24/99/62 85/126/62 26/127/62
f 34/102/63 90/128/63 36/129/63
f 44/105/64 95/130/64 46/131/64
f 10/108/65 78/132/65 12/41/65
f 20/111/66 83/133/66 22/97/66
f 30/114/67 88/134/67 32/100/67
f 40/117/68 93/135/68 42/103/68
f 6/123/69 76/136/69 8/106/69
f 16/125/70 81/137/70 18/109/70
f 2/120/71 73/138/71 4/121/71
f 26/127/72 86/139/72 28/112/72
f 36/129/73 91/140/73 38/115/73
f 46/131/74 96/141/74 48/118/74
f 2/1/1 4/142/1 50/2/1
f 50/2/2 4/142/2 6/4/2
f 6/4/3 8/7/3 52/6/3
f 8/7/4 10/9/4 53/8/4
f 10/9/5 12/11/5 54/10/5
f 12/11/6 14/143/6 55/12/6
f 55/12/7 14/143/7 16/13/7
f 16/13/8 18/16/8 57/15/8
f 18/16/9 20/144/9 58/17/9
f 58/17/10 20/144/10 22/18/10
f 22/18/11 24/21/11 60/20/11
f 24/21/12 26/23/12 61/22/12
f 26/23/13 28/25/13 62/24/13
f 28/25/14 30/145/14 63/26/14
f 63/26/15 30/145/15 32/27/15
f 32/27/16 34/30/16 65/29/16
f 34/30/17 36/32/17 66/31/17
f 36/32/18 38/34/18 67/33/18
f 38/34/19 40/146/19 68/35/19
f 68/35/20 40/146/20 42/36/20
f 42/36/21 44/147/21 70/38/21
f 70/38/22 44/147/22 46/39/22
f 12/41/23 78/132/23 79/42/23
f 46/39/24 48/45/24 72/44/24
f 48/45/25 2/1/25 49/3/25
f 47/48/26 1/148/26 3/149/26
f 3/149/26 5/150/26 7/151/26
f 7/151/26 9/152/26 11/153/26
f 11/153/26 13/154/26 15/155/26
f 15/155/26 17/156/26 19/157/26
f 19/157/26 21/158/26 23/46/26
f 23/46/26 25/159/26 27/160/26
f 27/160/26 29/161/26 31/47/26
f 31/47/26 33/162/26 35/163/26
f 35/163/26 37/164/26 39/165/26
f 39/165/26 41/166/26 43/167/26
f 43/167/26 45/168/26 47/48/26
f 47/48/26 3/149/26 7/151/26
f 7/151/26 11/153/26 15/155/26
f 15/155/26 19/157/26 23/46/26
f 23/46/26 27/160/26 31/47/26
f 31/47/26 35/163/26 47/48/26
f 39/165/26 43/167/26 47/48/26
f 47/48/26 7/151/26 15/155/26
f 15/155/26 23/46/26 47/48/26
f 35/163/26 39/165/26 47/48/26
f 72/49/27 49/93/27 1/50/27
f 71/52/28 72/49/28 47/51/28
f 70/54/29 71/52/29 45/53/29
f 69/56/30 70/54/30 43/55/30
f 68/58/31 69/56/31 41/57/31
f 67/60/32 68/58/32 39/59/32
f 66/62/33 67/60/33 37/61/33
f 65/64/34 66/62/34 35/63/34
f 64/66/35 65/64/35 33/65/35
f 63/68/36 64/66/36 31/67/36
f 62/70/37 63/68/37 29/69/37
f 25/72/38 61/169/38 62/70/38
f 60/73/39 61/169/39 25/72/39
f 21/75/40 59/170/40 60/73/40
f 58/76/41 59/170/41 21/75/41
f 57/78/42 58/76/42 19/77/42
f 56/80/43 57/78/43 17/79/43
f 55/82/44 56/80/44 15/81/44
f 54/84/45 55/82/45 13/83/45
f 53/86/46 54/84/46 11/85/46
f 7/88/47 52/90/47 53/86/47
f 5/89/48 51/92/48 52/90/48
f 3/91/49 50/171/49 51/92/49
f 49/93/50 50/171/50 3/91/50
f 75/172/51 73/173/51 95/96/51
f 74/174/51 96/175/51 95/96/51
f 95/96/51 94/176/51 91/94/51
f 93/177/51 92/178/51 91/94/51
f 91/94/51 90/179/51 87/180/51
f 89/181/51 88/182/51 87/180/51
f 87/180/51 86/183/51 83/95/51
f 85/184/51 84/185/51 83/95/51
f 83/95/51 82/186/51 81/187/51
f 81/187/51 80/188/51 79/189/51
f 79/189/51 78/190/51 75/172/51
f 77/191/51 76/192/51 75/172/51
f 73/173/51 74/174/51 95/96/51
f 94/176/51 93/177/51 91/94/51
f 90/179/51 89/181/51 87/180/51
f 86/183/51 85/184/51 83/95/51
f 83/95/51 81/187/51 79/189/51
f 78/190/51 77/191/51 75/172/51
f 75/172/51 95/96/51 83/95/51
f 91/94/51 87/180/51 83/95/51
f 83/95/51 79/189/51 75/172/51
f 22/97/52 83/133/52 84/98/52
f 32/100/53 88/134/53 89/101/53
f 42/103/54 93/135/54 94/104/54
f 8/106/55 76/136/55 77/107/55
f 18/109/56 81/137/56 82/110/56
f 28/112/57 86/139/57 87/113/57
f 38/115/58 91/140/58 92/116/58
f 48/118/59 96/141/59 74/119/59
f 4/121/60 73/138/60 75/122/60
f 14/43/61 79/42/61 80/124/61
f 24/99/62 84/98/62 85/126/62
f 34/102/63 89/101/63 90/128/63
f 44/105/64 94/104/64 95/130/64
f 10/108/65 77/107/65 78/132/65
f 20/111/66 82/110/66 83/133/66
f 30/114/67 87/113/67 88/134/67
f 40/117/68 92/116/68 93/135/68
f 6/123/69 75/122/69 76/136/69
f 16/125/70 80/124/70 81/137/70
f 2/120/71 74/119/71 73/138/71
f 26/127/72 85/126/72 86/139/72
f 36/129/73 90/128/73 91/140/73
f 46/131/74 95/130/74 96/141/74
